Coordinates
version=1
nRows=7
nColumns=46
inDegrees=yes

Units are S.I. units (second, meters, Newtons, ...)
Angles are in degrees.

endheader
time	pelvis_tilt	pelvis_list	pelvis_rotation	pelvis_tx	pelvis_ty	pelvis_tz	bb_angle	bb_tx	bb_ty	bb_tz	hip_flexion_r	hip_adduction_r	hip_rotation_r	knee_angle_r	knee_angle_r_beta	ankle_angle_r	subtalar_angle_r	mtp_angle_r	crank_angle_r	hip_flexion_l	hip_adduction_l	hip_rotation_l	knee_angle_l	knee_angle_l_beta	ankle_angle_l	subtalar_angle_l	mtp_angle_l	crank_angle_l	lumbar_extension	lumbar_bending	lumbar_rotation	arm_flex_r	arm_add_r	arm_rot_r	elbow_flex_r	pro_sup_r	wrist_flex_r	wrist_dev_r	arm_flex_l	arm_add_l	arm_rot_l	elbow_flex_l	pro_sup_l	wrist_flex_l	wrist_dev_l
      5.00000000	    -21.81004944	     -4.03120600	      3.57853455	      0.06692697	      0.99434907	     -0.23343910	      0.00000000	      0.50000000	      0.00000000	      0.25000000	     78.51751084	     -5.63625029	      3.18629116	    106.78093051	      1.86367882	     -2.65296116	     -9.06156193	      0.00000000	      0.00000000	     66.32469814	     -3.22166789	      3.86124369	     47.64844347	      0.83162222	     -2.58659042	     -9.98863499	      0.00000000	      0.00000000	    -48.30463399	      9.64257913	     -0.06735561	     84.45435721	     -2.10980844	     21.93260450	     55.44551301	     47.56878219	      0.00000000	      0.00000000	     82.15628621	    -29.52783036	     37.32180522	     64.38952887	     44.81636306	      0.00000000	      0.00000000
      5.00500000	    -21.55196114	     -4.20994001	      2.87167924	      0.06759776	      0.99571315	     -0.23393270	      0.00000000	      0.50000000	      0.00000000	      0.25000000	     79.72523331	     -4.79439061	      3.58541423	    108.05120464	      1.88584928	     -3.49002364	     -9.41292745	      0.00000000	      0.00000000	     64.15526121	     -3.81758293	      3.68142459	     45.23640140	      0.78952415	     -4.13591923	    -11.10106926	      0.00000000	      0.00000000	    -48.74658816	      9.95212617	      0.30802755	     84.83896601	     -1.11884828	     21.91184804	     55.00131508	     47.47981167	      0.00000000	      0.00000000	     81.51546187	    -30.25857816	     36.58008598	     64.37631971	     44.84134302	      0.00000000	      0.00000000
      5.01000000	    -21.38516697	     -4.55780328	      2.05691550	      0.06840774	      0.99684161	     -0.23408465	      0.00000000	      0.50000000	      0.00000000	      0.25000000	     81.05644162	     -3.76357693	      3.79195447	    109.24705128	      1.90672074	     -4.16089190	     -9.70433146	      0.00000000	      0.00000000	     62.12581073	     -4.66391862	      3.54919125	     42.96353125	      0.74985508	     -5.13354375	    -11.38698271	      0.00000000	      0.00000000	    -49.07419961	     10.32179016	      0.94472747	     85.24232230	     -0.19271145	     21.84897243	     54.36662851	     47.34991829	      0.00000000	      0.00000000	     80.67860499	    -30.93850128	     35.87024142	     64.51985716	     44.89388594	      0.00000000	      0.00000000
      5.01500000	    -21.22319185	     -4.92531744	      1.35440540	      0.06936741	      0.99791103	     -0.23452373	      0.00000000	      0.50000000	      0.00000000	      0.25000000	     82.43734464	     -2.99079789	      3.80785313	    110.38330003	      1.92655202	     -5.20563015	     -9.98264011	      0.00000000	      0.00000000	     60.10658424	     -5.40578492	      3.46602756	     40.73398197	      0.71094210	     -6.07578495	    -11.61871550	      0.00000000	      0.00000000	    -49.40755861	     10.92572838	      0.83265439	     86.14182508	      2.20757939	     21.37078939	     51.80211776	     46.84809977	      0.00000000	      0.00000000	     78.74663718	    -32.58811957	     33.49201792	     66.13018652	     45.40551048	      0.00000000	      0.00000000
      5.02000000	    -21.08132726	     -5.28711788	      0.55425412	      0.07055712	      0.99885358	     -0.23465957	      0.00000000	      0.50000000	      0.00000000	      0.25000000	     83.83647418	     -2.09306816	      3.85250707	    111.43146526	      1.94484596	     -6.01808188	     -9.83595166	      0.00000000	      0.00000000	     58.14041828	     -6.30170948	      3.19790873	     38.67995697	      0.67509260	     -6.66772054	    -11.35588407	      0.00000000	      0.00000000	    -49.71410795	     11.21982394	      1.67410947	     86.22295957	      2.52275178	     21.40285683	     51.97944953	     46.86331295	      0.00000000	      0.00000000	     78.02649046	    -32.94690489	     33.36774580	     65.94026675	     45.39115545	      0.00000000	      0.00000000
      5.02500000	    -20.75333947	     -5.53319873	     -0.23001953	      0.07176279	      1.00025763	     -0.23479176	      0.00000000	      0.50000000	      0.00000000	      0.25000000	     85.07167095	     -1.29175493	      3.91235146	    112.36032062	      1.96105754	     -7.25143029	     -9.89991273	      0.00000000	      0.00000000	     55.94978926	     -7.15037955	      2.65097653	     36.61545187	      0.63906019	     -7.52582525	    -11.17887407	      0.00000000	      0.00000000	    -50.27077678	     11.40522120	      2.40168676	     86.36508574	      2.90800645	     21.44827855	     52.02996824	     46.85584350	      0.00000000	      0.00000000	     77.38672459	    -33.32637346	     33.07932683	     65.79804681	     45.37356330	      0.00000000	      0.00000000
      5.03000000	    -20.41872043	     -5.71653823	     -0.95200923	      0.07297163	      1.00171923	     -0.23501030	      0.00000000	      0.50000000	      0.00000000	      0.25000000	     86.36304949	     -0.66648210	      3.81570514	    113.17759184	      1.97532162	     -9.05207142	    -10.91110812	      0.00000000	      0.00000000	     53.82703596	     -7.89357313	      2.00281286	     34.71625868	      0.60591302	     -8.62156630	    -11.32161945	      0.00000000	      0.00000000	    -50.85634597	     11.68318467	      2.45525794	     86.93318913	      4.33394308	     21.48780517	     50.53211911	     46.54231891	      0.00000000	      0.00000000	     75.76265568	    -34.36419492	     30.71246978	     66.97266191	     45.68875843	      0.00000000	      0.00000000
